<mxfile host="Electron" agent="Mozilla/5.0 (Windows NT 10.0; Win64; x64) AppleWebKit/537.36 (KHTML, like Gecko) draw.io/26.0.16 Chrome/132.0.6834.196 Electron/34.2.0 Safari/537.36" version="26.0.16">
  <diagram name="Page-1" id="M5uj1KW9E68CLk-7lXaE">
    <mxGraphModel dx="1434" dy="836" grid="0" gridSize="10" guides="1" tooltips="1" connect="1" arrows="1" fold="1" page="1" pageScale="1" pageWidth="1169" pageHeight="827" math="0" shadow="0">
      <root>
        <mxCell id="0" />
        <mxCell id="1" parent="0" />
        <mxCell id="Gr03Qwkpfc5shVFAnP2J-1" value="" style="pointerEvents=1;fillColor=strokeColor;verticalLabelPosition=bottom;shadow=0;dashed=0;align=center;html=1;verticalAlign=top;shape=mxgraph.electrical.diodes.diode;rotation=-90;strokeWidth=3;" vertex="1" parent="1">
          <mxGeometry x="561" y="303" width="100" height="60" as="geometry" />
        </mxCell>
        <mxCell id="Gr03Qwkpfc5shVFAnP2J-3" value="" style="endArrow=none;html=1;rounded=0;exitX=0.02;exitY=0.501;exitDx=0;exitDy=0;exitPerimeter=0;entryX=0;entryY=0.5;entryDx=0;entryDy=0;strokeWidth=3;" edge="1" parent="1" source="Gr03Qwkpfc5shVFAnP2J-43" target="Gr03Qwkpfc5shVFAnP2J-25">
          <mxGeometry width="50" height="50" relative="1" as="geometry">
            <mxPoint x="316" y="277" as="sourcePoint" />
            <mxPoint x="603.5000000000038" y="237.5" as="targetPoint" />
            <Array as="points">
              <mxPoint x="316" y="238" />
            </Array>
          </mxGeometry>
        </mxCell>
        <mxCell id="Gr03Qwkpfc5shVFAnP2J-4" value="" style="verticalLabelPosition=bottom;shadow=0;dashed=0;align=center;html=1;verticalAlign=top;strokeWidth=3;shape=ellipse;perimeter=ellipsePerimeter;" vertex="1" parent="1">
          <mxGeometry x="308.5" y="175" width="15" height="15" as="geometry" />
        </mxCell>
        <mxCell id="Gr03Qwkpfc5shVFAnP2J-5" value="" style="endArrow=none;html=1;rounded=0;entryX=0.5;entryY=1;entryDx=0;entryDy=0;strokeWidth=3;" edge="1" parent="1" target="Gr03Qwkpfc5shVFAnP2J-4">
          <mxGeometry width="50" height="50" relative="1" as="geometry">
            <mxPoint x="316" y="238" as="sourcePoint" />
            <mxPoint x="402" y="146" as="targetPoint" />
          </mxGeometry>
        </mxCell>
        <mxCell id="Gr03Qwkpfc5shVFAnP2J-6" value="&lt;b&gt;&lt;font style=&quot;font-size: 14px;&quot;&gt;5V&lt;/font&gt;&lt;/b&gt;" style="text;html=1;align=center;verticalAlign=middle;whiteSpace=wrap;rounded=0;strokeWidth=3;" vertex="1" parent="1">
          <mxGeometry x="289" y="147" width="54" height="28" as="geometry" />
        </mxCell>
        <mxCell id="Gr03Qwkpfc5shVFAnP2J-7" value="" style="pointerEvents=1;verticalLabelPosition=bottom;shadow=0;dashed=0;align=center;html=1;verticalAlign=top;shape=mxgraph.electrical.capacitors.capacitor_5;rotation=90;strokeWidth=3;" vertex="1" parent="1">
          <mxGeometry x="561" y="474" width="100" height="60" as="geometry" />
        </mxCell>
        <mxCell id="Gr03Qwkpfc5shVFAnP2J-8" value="" style="verticalLabelPosition=bottom;shadow=0;dashed=0;align=center;html=1;verticalAlign=top;strokeWidth=3;shape=ellipse;perimeter=ellipsePerimeter;fillColor=#000000;" vertex="1" parent="1">
          <mxGeometry x="605.25" y="414" width="11.5" height="12" as="geometry" />
        </mxCell>
        <mxCell id="Gr03Qwkpfc5shVFAnP2J-9" value="" style="endArrow=none;html=1;rounded=0;exitX=0;exitY=0.5;exitDx=0;exitDy=0;exitPerimeter=0;entryX=0.5;entryY=1;entryDx=0;entryDy=0;strokeWidth=3;" edge="1" parent="1" source="Gr03Qwkpfc5shVFAnP2J-7" target="Gr03Qwkpfc5shVFAnP2J-8">
          <mxGeometry width="50" height="50" relative="1" as="geometry">
            <mxPoint x="563" y="428" as="sourcePoint" />
            <mxPoint x="618" y="432" as="targetPoint" />
          </mxGeometry>
        </mxCell>
        <mxCell id="Gr03Qwkpfc5shVFAnP2J-10" value="" style="endArrow=none;html=1;rounded=0;exitX=0.5;exitY=0;exitDx=0;exitDy=0;entryX=0;entryY=0.5;entryDx=0;entryDy=0;entryPerimeter=0;strokeWidth=3;" edge="1" parent="1" source="Gr03Qwkpfc5shVFAnP2J-8" target="Gr03Qwkpfc5shVFAnP2J-1">
          <mxGeometry width="50" height="50" relative="1" as="geometry">
            <mxPoint x="624" y="407" as="sourcePoint" />
            <mxPoint x="610.9999999999998" y="387" as="targetPoint" />
          </mxGeometry>
        </mxCell>
        <mxCell id="Gr03Qwkpfc5shVFAnP2J-11" value="" style="endArrow=none;html=1;rounded=0;entryX=0;entryY=0.5;entryDx=0;entryDy=0;exitX=1;exitY=0.5;exitDx=0;exitDy=0;exitPerimeter=0;strokeWidth=3;" edge="1" parent="1" source="Gr03Qwkpfc5shVFAnP2J-43" target="Gr03Qwkpfc5shVFAnP2J-8">
          <mxGeometry width="50" height="50" relative="1" as="geometry">
            <mxPoint x="316" y="387" as="sourcePoint" />
            <mxPoint x="552" y="363" as="targetPoint" />
            <Array as="points">
              <mxPoint x="316" y="421" />
            </Array>
          </mxGeometry>
        </mxCell>
        <mxCell id="Gr03Qwkpfc5shVFAnP2J-12" value="" style="pointerEvents=1;verticalLabelPosition=bottom;shadow=0;dashed=0;align=center;html=1;verticalAlign=top;shape=mxgraph.electrical.resistors.resistor_1;rotation=90;strokeWidth=3;" vertex="1" parent="1">
          <mxGeometry x="732.5" y="317.5" width="110" height="33" as="geometry" />
        </mxCell>
        <mxCell id="Gr03Qwkpfc5shVFAnP2J-13" value="" style="pointerEvents=1;verticalLabelPosition=bottom;shadow=0;dashed=0;align=center;html=1;verticalAlign=top;shape=mxgraph.electrical.resistors.resistor_1;rotation=90;strokeWidth=3;" vertex="1" parent="1">
          <mxGeometry x="732.5" y="487.5" width="110" height="33" as="geometry" />
        </mxCell>
        <mxCell id="Gr03Qwkpfc5shVFAnP2J-16" value="" style="endArrow=none;html=1;rounded=0;entryX=0;entryY=0.5;entryDx=0;entryDy=0;entryPerimeter=0;exitX=1;exitY=0.5;exitDx=0;exitDy=0;strokeWidth=3;" edge="1" parent="1" source="Gr03Qwkpfc5shVFAnP2J-25" target="Gr03Qwkpfc5shVFAnP2J-12">
          <mxGeometry width="50" height="50" relative="1" as="geometry">
            <mxPoint x="618.4999999999962" y="237.5" as="sourcePoint" />
            <mxPoint x="694" y="301" as="targetPoint" />
            <Array as="points">
              <mxPoint x="788" y="237" />
            </Array>
          </mxGeometry>
        </mxCell>
        <mxCell id="Gr03Qwkpfc5shVFAnP2J-17" value="" style="endArrow=none;html=1;rounded=0;entryX=1;entryY=0.5;entryDx=0;entryDy=0;entryPerimeter=0;exitX=0;exitY=0.5;exitDx=0;exitDy=0;exitPerimeter=0;strokeWidth=3;" edge="1" parent="1" source="Gr03Qwkpfc5shVFAnP2J-13" target="Gr03Qwkpfc5shVFAnP2J-12">
          <mxGeometry width="50" height="50" relative="1" as="geometry">
            <mxPoint x="741" y="498" as="sourcePoint" />
            <mxPoint x="791" y="448" as="targetPoint" />
          </mxGeometry>
        </mxCell>
        <mxCell id="Gr03Qwkpfc5shVFAnP2J-18" value="" style="endArrow=none;html=1;rounded=0;entryX=0.5;entryY=1;entryDx=0;entryDy=0;strokeWidth=3;" edge="1" parent="1" target="Gr03Qwkpfc5shVFAnP2J-19">
          <mxGeometry width="50" height="50" relative="1" as="geometry">
            <mxPoint x="787.5" y="688" as="sourcePoint" />
            <mxPoint x="804.5" y="638" as="targetPoint" />
          </mxGeometry>
        </mxCell>
        <mxCell id="Gr03Qwkpfc5shVFAnP2J-19" value="" style="verticalLabelPosition=bottom;shadow=0;dashed=0;align=center;html=1;verticalAlign=top;strokeWidth=3;shape=ellipse;perimeter=ellipsePerimeter;fillColor=#000000;" vertex="1" parent="1">
          <mxGeometry x="780" y="596" width="15" height="15" as="geometry" />
        </mxCell>
        <mxCell id="Gr03Qwkpfc5shVFAnP2J-20" value="" style="endArrow=none;html=1;rounded=0;entryX=1;entryY=0.5;entryDx=0;entryDy=0;entryPerimeter=0;exitX=0;exitY=0.5;exitDx=0;exitDy=0;strokeWidth=3;" edge="1" parent="1" source="Gr03Qwkpfc5shVFAnP2J-19" target="Gr03Qwkpfc5shVFAnP2J-7">
          <mxGeometry width="50" height="50" relative="1" as="geometry">
            <mxPoint x="616" y="635" as="sourcePoint" />
            <mxPoint x="666" y="585" as="targetPoint" />
            <Array as="points">
              <mxPoint x="611" y="605" />
            </Array>
          </mxGeometry>
        </mxCell>
        <mxCell id="Gr03Qwkpfc5shVFAnP2J-21" value="" style="endArrow=none;html=1;rounded=0;entryX=1;entryY=0.5;entryDx=0;entryDy=0;entryPerimeter=0;exitX=0.5;exitY=0;exitDx=0;exitDy=0;strokeWidth=3;" edge="1" parent="1" source="Gr03Qwkpfc5shVFAnP2J-19" target="Gr03Qwkpfc5shVFAnP2J-13">
          <mxGeometry width="50" height="50" relative="1" as="geometry">
            <mxPoint x="704" y="634" as="sourcePoint" />
            <mxPoint x="754" y="584" as="targetPoint" />
          </mxGeometry>
        </mxCell>
        <mxCell id="Gr03Qwkpfc5shVFAnP2J-24" value="" style="endArrow=none;html=1;rounded=0;exitX=1;exitY=0.5;exitDx=0;exitDy=0;exitPerimeter=0;entryX=0.5;entryY=1;entryDx=0;entryDy=0;strokeWidth=3;" edge="1" parent="1" source="Gr03Qwkpfc5shVFAnP2J-1" target="Gr03Qwkpfc5shVFAnP2J-25">
          <mxGeometry width="50" height="50" relative="1" as="geometry">
            <mxPoint x="580" y="274" as="sourcePoint" />
            <mxPoint x="611" y="245" as="targetPoint" />
          </mxGeometry>
        </mxCell>
        <mxCell id="Gr03Qwkpfc5shVFAnP2J-25" value="" style="verticalLabelPosition=bottom;shadow=0;dashed=0;align=center;html=1;verticalAlign=top;strokeWidth=3;shape=ellipse;perimeter=ellipsePerimeter;fillColor=#000000;" vertex="1" parent="1">
          <mxGeometry x="605.25" y="232" width="11.5" height="12" as="geometry" />
        </mxCell>
        <mxCell id="Gr03Qwkpfc5shVFAnP2J-28" value="&lt;font style=&quot;font-size: 16px;&quot;&gt;&lt;b style=&quot;&quot;&gt;&lt;font style=&quot;&quot;&gt;10&lt;/font&gt;&lt;/b&gt;&lt;span style=&quot;color: rgb(31, 31, 31); text-align: start; background-color: rgb(255, 255, 255);&quot;&gt;Î©&lt;/span&gt;&lt;/font&gt;" style="text;html=1;align=center;verticalAlign=middle;whiteSpace=wrap;rounded=0;" vertex="1" parent="1">
          <mxGeometry x="808" y="320" width="54" height="28" as="geometry" />
        </mxCell>
        <mxCell id="Gr03Qwkpfc5shVFAnP2J-30" value="&lt;font style=&quot;font-size: 16px;&quot;&gt;&lt;b style=&quot;&quot;&gt;&lt;font style=&quot;&quot;&gt;10&lt;/font&gt;&lt;/b&gt;&lt;span style=&quot;color: rgb(31, 31, 31); text-align: start; background-color: rgb(255, 255, 255);&quot;&gt;Î©&lt;/span&gt;&lt;/font&gt;" style="text;html=1;align=center;verticalAlign=middle;whiteSpace=wrap;rounded=0;strokeWidth=2;" vertex="1" parent="1">
          <mxGeometry x="802" y="490" width="54" height="28" as="geometry" />
        </mxCell>
        <mxCell id="Gr03Qwkpfc5shVFAnP2J-31" value="&lt;font style=&quot;font-size: 16px;&quot;&gt;&lt;b style=&quot;&quot;&gt;&lt;font style=&quot;&quot;&gt;10&lt;/font&gt;&lt;/b&gt;&lt;span style=&quot;color: rgb(31, 31, 31); text-align: start; background-color: rgb(255, 255, 255);&quot;&gt;Î©&lt;/span&gt;&lt;/font&gt;" style="text;html=1;align=center;verticalAlign=middle;whiteSpace=wrap;rounded=0;" vertex="1" parent="1">
          <mxGeometry x="245" y="318" width="54" height="28" as="geometry" />
        </mxCell>
        <mxCell id="Gr03Qwkpfc5shVFAnP2J-33" value="&lt;b style=&quot;&quot;&gt;&lt;font style=&quot;font-size: 16px;&quot;&gt;R2&lt;/font&gt;&lt;/b&gt;" style="text;html=1;align=center;verticalAlign=middle;whiteSpace=wrap;rounded=0;strokeWidth=3;" vertex="1" parent="1">
          <mxGeometry x="760.5" y="320" width="54" height="28" as="geometry" />
        </mxCell>
        <mxCell id="Gr03Qwkpfc5shVFAnP2J-34" value="&lt;b style=&quot;&quot;&gt;&lt;font style=&quot;font-size: 16px;&quot;&gt;R3&lt;/font&gt;&lt;/b&gt;" style="text;html=1;align=center;verticalAlign=middle;whiteSpace=wrap;rounded=0;strokeWidth=3;" vertex="1" parent="1">
          <mxGeometry x="760.5" y="490" width="54" height="28" as="geometry" />
        </mxCell>
        <mxCell id="Gr03Qwkpfc5shVFAnP2J-35" value="&lt;b style=&quot;&quot;&gt;&lt;font style=&quot;font-size: 16px;&quot;&gt;C1&lt;/font&gt;&lt;/b&gt;" style="text;html=1;align=center;verticalAlign=middle;whiteSpace=wrap;rounded=0;" vertex="1" parent="1">
          <mxGeometry x="520" y="474" width="54" height="28" as="geometry" />
        </mxCell>
        <mxCell id="Gr03Qwkpfc5shVFAnP2J-36" value="&lt;b style=&quot;&quot;&gt;&lt;font style=&quot;font-size: 16px;&quot;&gt;D1&lt;/font&gt;&lt;/b&gt;" style="text;html=1;align=center;verticalAlign=middle;whiteSpace=wrap;rounded=0;" vertex="1" parent="1">
          <mxGeometry x="527" y="318" width="54" height="28" as="geometry" />
        </mxCell>
        <mxCell id="Gr03Qwkpfc5shVFAnP2J-37" value="&lt;b style=&quot;&quot;&gt;&lt;font style=&quot;font-size: 16px;&quot;&gt;0.33uF&lt;/font&gt;&lt;/b&gt;" style="text;html=1;align=center;verticalAlign=middle;whiteSpace=wrap;rounded=0;" vertex="1" parent="1">
          <mxGeometry x="520" y="506" width="54" height="28" as="geometry" />
        </mxCell>
        <mxCell id="Gr03Qwkpfc5shVFAnP2J-38" value="" style="pointerEvents=1;verticalLabelPosition=bottom;shadow=0;dashed=0;align=center;html=1;verticalAlign=top;shape=mxgraph.electrical.signal_sources.protective_earth;strokeWidth=3;" vertex="1" parent="1">
          <mxGeometry x="757" y="659" width="61" height="44" as="geometry" />
        </mxCell>
        <mxCell id="Gr03Qwkpfc5shVFAnP2J-39" value="" style="endArrow=none;html=1;rounded=0;exitX=0.5;exitY=0;exitDx=0;exitDy=0;exitPerimeter=0;strokeWidth=3;" edge="1" parent="1" source="Gr03Qwkpfc5shVFAnP2J-38">
          <mxGeometry width="50" height="50" relative="1" as="geometry">
            <mxPoint x="799.5" y="668" as="sourcePoint" />
            <mxPoint x="787.5" y="688" as="targetPoint" />
          </mxGeometry>
        </mxCell>
        <mxCell id="Gr03Qwkpfc5shVFAnP2J-43" value="" style="pointerEvents=1;verticalLabelPosition=bottom;shadow=0;dashed=0;align=center;html=1;verticalAlign=top;shape=mxgraph.electrical.resistors.resistor_1;rotation=90;strokeWidth=3;" vertex="1" parent="1">
          <mxGeometry x="261" y="316.5" width="110" height="33" as="geometry" />
        </mxCell>
        <mxCell id="Gr03Qwkpfc5shVFAnP2J-44" value="&lt;b style=&quot;&quot;&gt;&lt;font style=&quot;font-size: 16px;&quot;&gt;R2&lt;/font&gt;&lt;/b&gt;" style="text;html=1;align=center;verticalAlign=middle;whiteSpace=wrap;rounded=0;strokeWidth=3;" vertex="1" parent="1">
          <mxGeometry x="289" y="319" width="54" height="28" as="geometry" />
        </mxCell>
      </root>
    </mxGraphModel>
  </diagram>
</mxfile>
